<?xml version="1.0" standalone="no"?>
<!DOCTYPE svg PUBLIC "-//W3C//DTD SVG 20010904//EN"
 "http://www.w3.org/TR/2001/REC-SVG-20010904/DTD/svg10.dtd">
<svg version="1.0" xmlns="http://www.w3.org/2000/svg"
 width="260.000000pt" height="260.000000pt" viewBox="0 0 260.000000 260.000000"
 preserveAspectRatio="xMidYMid meet">
<metadata>
Created by potrace 1.11, written by Peter Selinger 2001-2013
</metadata>
<g transform="translate(0.000000,260.000000) scale(0.100000,-0.100000)"
fill="#000000" stroke="none">
<path d="M498 2059 c-130 -15 -140 -66 -35 -188 75 -88 97 -123 97 -155 0 -18
7 -42 16 -54 12 -17 14 -35 9 -72 -4 -27 -2 -64 3 -82 6 -18 15 -60 21 -93 13
-70 36 -105 77 -118 16 -5 35 -11 43 -13 9 -3 -1 -15 -26 -33 -55 -40 -80 -75
-98 -134 -14 -47 -14 -52 5 -81 12 -20 17 -41 13 -55 -4 -14 1 -32 14 -49 11
-15 22 -46 25 -69 3 -23 15 -54 27 -69 15 -18 21 -41 21 -73 0 -44 2 -48 34
-59 27 -10 38 -22 52 -57 l16 -44 43 6 c32 4 51 1 74 -13 l31 -18 87 91 c83
85 91 97 138 209 l49 119 -3 133 c-2 90 1 132 8 132 6 0 11 -3 11 -7 6 -116
31 -233 51 -233 17 0 31 52 37 144 5 61 11 91 20 94 11 3 13 -22 11 -129 l-3
-134 49 -119 c47 -112 55 -124 138 -209 l87 -91 31 18 c23 14 42 17 74 13 l43
-6 16 44 c14 35 25 47 52 57 32 11 34 15 34 59 0 32 6 55 21 73 12 15 24 46
27 69 3 23 14 54 25 69 13 17 18 35 14 49 -4 14 1 35 13 55 19 29 19 34 5 81
-18 59 -43 94 -98 134 -25 18 -35 30 -26 33 8 2 27 8 43 13 41 13 64 48 77
118 6 33 15 75 21 93 5 18 7 55 3 82 -5 37 -3 55 9 72 9 12 16 36 16 54 0 32
22 67 97 155 117 136 89 190 -97 190 -147 0 -221 -28 -338 -129 -109 -95 -199
-222 -301 -426 -32 -62 -36 -67 -48 -50 -7 10 -13 37 -13 59 1 63 -3 84 -15
77 -16 -10 -48 -2 -63 16 -11 15 -12 14 -2 -5 8 -16 8 -29 0 -43 -8 -14 -7
-25 2 -39 9 -15 8 -24 -6 -46 -10 -15 -22 -23 -26 -19 -5 5 -27 45 -50 89 -65
124 -109 194 -166 266 -55 70 -156 162 -214 196 -72 43 -194 64 -302 52z m-8
-60 c0 -5 -7 -9 -15 -9 -15 0 -20 12 -9 23 8 8 24 -1 24 -14z m202 1 c87 -24
151 -65 254 -162 119 -113 223 -283 242 -398 l5 -35 -34 26 c-19 14 -45 32
-59 39 -25 12 -24 12 3 -18 16 -16 24 -32 19 -36 -6 -3 -8 -15 -5 -25 3 -14
-2 -21 -18 -26 l-23 -8 27 -14 c15 -8 25 -18 22 -24 -7 -10 3 -15 58 -24 28
-4 37 -10 35 -23 -1 -9 1 -22 5 -28 3 -6 -7 -45 -23 -85 -20 -52 -35 -120 -50
-229 -21 -152 -34 -194 -64 -219 -10 -9 -8 1 7 28 16 30 19 45 12 57 -6 9 -13
15 -16 13 -3 -2 -13 2 -21 9 -14 11 -17 8 -26 -15 -5 -15 -22 -41 -37 -57 -26
-29 -28 -29 -41 -11 -8 10 -14 22 -14 27 0 4 -7 8 -15 8 -18 0 -18 1 -5 37
l10 28 -20 -24 c-12 -13 -25 -31 -29 -39 -7 -12 -14 -9 -39 19 -37 40 -38 44
-12 92 28 52 25 53 -17 7 -20 -23 -42 -39 -50 -36 -7 3 -13 0 -14 -7 0 -7 -6
4 -13 23 -12 33 -11 37 18 75 29 38 29 39 6 24 -28 -17 -60 -14 -60 6 0 7 -3
20 -6 28 -3 8 9 31 27 51 31 36 31 37 8 31 -34 -8 -74 36 -59 65 6 11 15 20
20 20 5 0 12 9 15 21 4 11 20 33 36 50 35 36 36 45 7 60 -45 23 -68 52 -68 85
0 18 -9 53 -20 79 -27 63 -26 110 2 129 18 13 19 16 5 16 -13 0 -17 9 -17 39
0 25 -13 65 -36 110 -29 58 -34 74 -24 86 9 11 9 15 1 15 -21 0 -42 68 -35
108 4 20 9 40 11 45 7 12 39 8 115 -13z m1328 -1 c0 -11 5 -29 11 -40 17 -32
-6 -87 -44 -104 l-32 -13 28 -1 c33 -1 34 -7 2 -54 -14 -20 -23 -41 -20 -46 3
-5 0 -11 -7 -13 -15 -5 -28 -129 -15 -146 12 -16 4 -76 -19 -127 -10 -22 -16
-50 -15 -63 3 -30 -22 -68 -59 -87 -35 -18 -37 -29 -10 -52 11 -10 20 -22 20
-28 0 -5 16 -27 36 -49 20 -22 34 -46 32 -58 -2 -10 -6 -17 -9 -16 -3 2 -13
-3 -22 -10 -10 -9 -25 -11 -39 -6 -20 6 -20 3 9 -29 29 -33 31 -40 22 -67 -15
-40 -23 -44 -56 -23 -27 17 -27 16 7 -27 22 -28 29 -42 18 -37 -22 8 -32 -7
-19 -31 19 -35 -27 -22 -63 19 -41 45 -44 44 -16 -8 26 -48 25 -52 -12 -92
-25 -28 -32 -31 -39 -19 -4 8 -17 26 -29 39 l-20 24 10 -28 c13 -36 13 -37 -5
-37 -8 0 -15 -4 -15 -8 0 -5 -6 -17 -14 -27 -13 -18 -15 -18 -41 11 -15 16
-32 42 -37 57 -9 23 -12 26 -26 15 -8 -7 -17 -11 -20 -8 -3 3 -10 -3 -16 -13
-9 -14 -6 -26 11 -58 15 -27 17 -37 7 -28 -30 25 -43 67 -64 219 -15 109 -30
177 -50 229 -16 40 -26 79 -23 85 4 6 6 19 5 28 -2 13 7 19 35 23 55 9 65 14
58 24 -3 6 7 16 22 24 l27 14 -23 8 c-16 5 -21 12 -18 26 3 10 1 22 -5 25 -5
4 3 20 19 36 27 30 28 30 3 18 -14 -7 -40 -25 -59 -39 l-34 -26 5 35 c26 157
197 389 369 504 55 36 158 73 212 75 21 1 27 -4 27 -20z m120 0 c0 -5 -7 -9
-15 -9 -15 0 -20 12 -9 23 8 8 24 -1 24 -14z m-1580 -148 c0 -12 -20 -25 -27
-18 -7 7 6 27 18 27 5 0 9 -4 9 -9z m1508 -10 c3 -8 -1 -12 -9 -9 -7 2 -15 10
-17 17 -3 8 1 12 9 9 7 -2 15 -10 17 -17z m-1460 -113 c-6 -18 -28 -21 -28 -4
0 9 7 16 16 16 9 0 14 -5 12 -12z m1412 -4 c0 -9 -5 -14 -12 -12 -18 6 -21 28
-4 28 9 0 16 -7 16 -16z m-1396 -145 c-3 -5 -10 -7 -15 -3 -5 3 -7 10 -3 15 3
5 10 7 15 3 5 -3 7 -10 3 -15z m1370 0 c-3 -5 -10 -7 -15 -3 -5 3 -7 10 -3 15
3 5 10 7 15 3 5 -3 7 -10 3 -15z m-1344 -159 c0 -5 -4 -10 -10 -10 -5 0 -10 5
-10 10 0 6 5 10 10 10 6 0 10 -4 10 -10z m1320 0 c0 -5 -4 -10 -10 -10 -5 0
-10 5 -10 10 0 6 5 10 10 10 6 0 10 -4 10 -10z"/>
<path d="M750 890 c0 -19 3 -21 12 -12 9 9 9 15 0 24 -9 9 -12 7 -12 -12z"/>
</g>
</svg>
